<svg width="62" height="63" viewBox="0 0 62 63" fill="none" xmlns="http://www.w3.org/2000/svg">
<rect width="61.9868" height="62.5" rx="11" fill="#171D26"/>
<path fill-rule="evenodd" clip-rule="evenodd" d="M33.3232 50.0676C22.8452 50.0676 14.3521 41.6951 14.3521 31.3669C14.3521 21.0388 22.8452 12.6663 33.3232 12.6663C42.6328 12.6663 50.3755 19.2761 51.9868 27.9958C50.4302 17.8044 41.6792 10 31.1162 10C19.4536 10 10 19.5134 10 31.25C10 42.9866 19.4536 52.5 31.1162 52.5C41.1055 52.5 49.4741 45.5195 51.6694 36.1416C49.5288 44.1567 42.1265 50.0676 33.3232 50.0676ZM36.7217 46.4277C28.1567 46.4277 21.2119 39.7373 21.2119 31.4839C21.2119 23.2305 28.1558 16.5398 36.7217 16.5398C40.1704 16.5398 43.3555 17.6245 45.9302 19.4585C42.7373 16.2639 38.2817 14.2793 33.3521 14.2793C23.6372 14.2793 15.7622 21.9822 15.7622 31.4827C15.7622 40.9832 23.6372 48.686 33.3521 48.686C38.2817 48.686 42.7363 46.7024 45.9302 43.5068C43.3555 45.3408 40.1704 46.4255 36.7217 46.4277ZM22.3203 31.4839C22.3203 23.7998 28.7178 17.5708 36.6104 17.5708C44.5029 17.5708 50.9009 23.7998 50.9009 31.4839C50.9009 39.168 44.5029 45.3967 36.6104 45.3967C28.7178 45.3967 22.3203 39.168 22.3203 31.4839ZM27.1709 31.3669C27.1709 37.4392 32.1768 42.3625 38.3506 42.3625C44.5249 42.3625 49.5303 37.4392 49.5303 31.3669C49.5303 25.2947 44.5249 20.3713 38.3506 20.3713C32.1758 20.3713 27.1709 25.2947 27.1709 31.3669Z" fill="#E4E4E4"/>
</svg>
